# xmcd
#
# Track frame offsets: 
#        150
#        51676
#        116489
#        159132
#        183695
#
# Disc length: 3008 seconds
#
# Revision: 2
# Processed by: cddbd v1.5.2PL0 Copyright (c) Steve Scherf et al.
# Submitted via: ExactAudioCopy v0.99pb4
#
DISCID=400bbe05
DTITLE=Svarte Greiner - Penpals Forever (And Ever)
DYEAR=2010
DGENRE=Ambient
TTITLE0=A1
TTITLE1=A2
TTITLE2=B1
TTITLE3=B2
TTITLE4=B3
EXTD=
EXTT0=
EXTT1=
EXTT2=
EXTT3=
EXTT4=
PLAYORDER=
